<?xml version="1.0" encoding="UTF-8"?>
<svg id="Layer_2" data-name="Layer 2" xmlns="http://www.w3.org/2000/svg" xmlns:xlink="http://www.w3.org/1999/xlink" viewBox="0 0 342.29 367.31">
  <defs>
    <style>
      .cls-1 {
        fill: url(#linear-gradient-13);
      }

      .cls-2 {
        fill: url(#linear-gradient-2);
      }

      .cls-3 {
        fill: url(#linear-gradient-10);
      }

      .cls-4 {
        fill: url(#linear-gradient-12);
      }

      .cls-5 {
        fill: url(#linear-gradient-4);
      }

      .cls-6 {
        fill: url(#linear-gradient-3);
      }

      .cls-7 {
        fill: url(#linear-gradient-5);
      }

      .cls-8 {
        fill: url(#linear-gradient-8);
      }

      .cls-9 {
        fill: url(#linear-gradient-14);
      }

      .cls-10 {
        fill: url(#linear-gradient-7);
      }

      .cls-11 {
        fill: url(#linear-gradient-9);
      }

      .cls-12 {
        fill: url(#linear-gradient-11);
      }

      .cls-13 {
        fill: url(#linear-gradient-6);
      }

      .cls-14 {
        fill: url(#linear-gradient);
      }

      .cls-15 {
        fill: #a8a7a8;
      }
    </style>
    <linearGradient id="linear-gradient" x1="224.49" y1="312.9" x2="224.49" y2="309.62" gradientUnits="userSpaceOnUse">
      <stop offset="0" stop-color="#a8a7a8"/>
      <stop offset="1" stop-color="#e0dfdf"/>
    </linearGradient>
    <linearGradient id="linear-gradient-2" x1="240.5" y1="309.61" x2="240.5" y2="18.12" xlink:href="#linear-gradient"/>
    <linearGradient id="linear-gradient-3" x1="215.19" y1="189.86" x2="215.19" y2="175" xlink:href="#linear-gradient"/>
    <linearGradient id="linear-gradient-4" x1="186.84" y1="270.04" x2="186.84" y2="263.73" xlink:href="#linear-gradient"/>
    <linearGradient id="linear-gradient-5" x1="190.1" y1="307.45" x2="190.1" y2="299.33" xlink:href="#linear-gradient"/>
    <linearGradient id="linear-gradient-6" x1="212.89" y1="146.18" x2="212.89" y2="171.03" gradientUnits="userSpaceOnUse">
      <stop offset="0" stop-color="#a8a7a8"/>
      <stop offset="1" stop-color="#6c6b6c"/>
    </linearGradient>
    <linearGradient id="linear-gradient-7" x1="224.42" y1="174.21" x2="224.42" y2="203.42" xlink:href="#linear-gradient-6"/>
    <linearGradient id="linear-gradient-8" x1="237.77" y1="270.95" x2="237.77" y2="270.96" xlink:href="#linear-gradient-6"/>
    <linearGradient id="linear-gradient-9" x1="238.31" y1="180.29" x2="238.31" y2="309.61" xlink:href="#linear-gradient-6"/>
    <linearGradient id="linear-gradient-10" x1="210.71" y1="75.87" x2="210.71" y2="94.93" xlink:href="#linear-gradient-6"/>
    <linearGradient id="linear-gradient-11" x1="261.43" y1="58.07" x2="261.43" y2="118.99" xlink:href="#linear-gradient-6"/>
    <linearGradient id="linear-gradient-12" x1="146.28" y1="323.24" x2="146.28" y2="24.05" xlink:href="#linear-gradient"/>
    <linearGradient id="linear-gradient-13" x1="9" y1="87.92" x2="116.88" y2="87.92" xlink:href="#linear-gradient"/>
    <linearGradient id="linear-gradient-14" x1="76.31" y1="142.59" x2="76.31" y2="264.99" gradientUnits="userSpaceOnUse">
      <stop offset="0" stop-color="#e0dfdf"/>
      <stop offset="1" stop-color="#a8a7a8"/>
    </linearGradient>
  </defs>
  <path d="M342.29,60.63l-.52,7.35-.58,8.18-8.25,114.63-.05.65-.05.55-.11.55-.13.67c-.66,3.18-7.04,32.14-28.17,67.43-12.63,21.09-27.96,40-45.53,56.21-21.97,20.26-47.53,36.3-75.97,47.7-.35.15-.78.32-1.28.5l-3.32,1.18-3.03,1.08-3.02-1.08-3.32-1.18c-.5-.18-.95-.36-1.28-.5-28.41-11.37-53.97-27.42-75.96-47.7-17.59-16.21-32.91-35.12-45.54-56.21-21.13-35.29-27.51-64.25-28.18-67.46l-.13-.64-.12-.62-.04-.62-.04-.61-4.3-59.7-2.17.55-11.2,2.82V41.36l11.28,2.95,28.76,7.54,9.4-2.6,81.32-22.5c.86-2.28,2.49-4.9,5.58-7.22.3-.23.56-.41.73-.53l.05-.03c.9-.62,1.87-1.19,2.98-1.73.46-.23.93-.45,1.39-.64.72-.31,1.47-.6,2.23-.86l.33-.12.33-.08c1.23-.32,2.47-.49,3.69-.49,1.32,0,2.63.19,3.89.57l.21.06.2.07c2.52.88,4.7,1.95,6.54,3.21l1-.28,9.87-2.73.1-.03.1-.03.09-.02.43-.11,2.53-.66,2.27-.59,2.27.59,2.55.66.42.11.29.07.13.05,53.12,14.7,2.39.66c8.96-7.68,17.18-15.12,18.9-17.83l8-13.52,7.62,13.76c.28.51,6.65,12.14,10.7,30.1l1.08.3,44.53,12.33,7.89,2.18,7.1,1.96Z"/>
  <g>
    <g>
      <g>
        <path class="cls-14" d="M225.58,309.63h.01c-.74,1.11-1.48,2.21-2.21,3.27.72-1.06,1.46-2.15,2.2-3.27Z"/>
        <path class="cls-2" d="M278.25,172.96s14.75,21.64,20.03,39.29c-1.17,2.96-2.49,6.12-3.97,9.45-5.15-2.82-12.65-6.47-17.59-6.88,0,0,4.22,14.84,4.9,31.34-.21.38-.44.76-.67,1.14-3.01,5-6.19,9.85-9.53,14.56-1.66-1.93-3.5-3.81-5.42-5.35,0,0-3.06,11.69-12.06,27.06-1.98,2.18-4.01,4.31-6.08,6.4,0,0,0,.01,0,.01-2.46,2.5-4.97,4.92-7.55,7.29-4.71,4.33-9.61,8.44-14.69,12.34h0c.19-.29.38-.58.58-.88.1-.15.19-.29.28-.44.27-.4.53-.81.79-1.22,1.59-2.47,3.17-5.06,4.7-7.73.25-.45.51-.9.76-1.35.77-1.35,1.51-2.73,2.23-4.12.25-.46.49-.93.72-1.4.48-.93.95-1.88,1.39-2.83.01,0,.02-.02.02-.03.41-.85.81-1.71,1.19-2.57.04-.09.08-.17.11-.26.22-.48.43-.96.64-1.44.21-.49.41-.97.61-1.45.2-.48.39-.96.58-1.45.58-1.45,1.12-2.91,1.61-4.36.16-.46.31-.93.46-1.39.16-.51.32-1.02.47-1.53.15-.48.28-.97.41-1.45.03-.1.06-.19.08-.29.07-.25.14-.49.2-.73.07-.24.13-.48.18-.71.1-.39.19-.78.28-1.17.11-.48.22-.97.31-1.45.1-.48.19-.96.28-1.44.09-.48.17-.96.24-1.43.14-.94.26-1.89.35-2.82v-.02s-.06.07-.15.2c-.04.04-.07.09-.11.14s-.09.1-.14.16c-.02.02-.05.05-.07.08-.08.1-.18.21-.29.34-.11.13-.23.27-.36.41-.35.4-.77.87-1.26,1.39-.99,1.06-2.23,2.3-3.54,3.44-.23.2-.46.4-.69.59-.23.2-.46.38-.69.56h0s.02-.06.05-.1c.02-.04.04-.08.07-.14.15-.27.41-.75.75-1.39.04-.08.08-.17.13-.25.59-1.15,1.39-2.73,2.24-4.55.25-.52.5-1.07.75-1.63.17-.36.33-.73.48-1.09.2-.44.39-.88.57-1.33.25-.6.5-1.2.73-1.81.06-.15.12-.31.18-.46.12-.3.23-.61.34-.91.02-.04.03-.09.05-.13.11-.3.21-.59.31-.89s.2-.59.29-.88c.14-.41.26-.82.37-1.22.05-.15.09-.29.12-.43.4-1.46.67-2.82.74-4,.01-.1.01-.19.01-.29.02-.4.01-.77-.03-1.12,0,0,5.11,3.4,5.62,7.15,0,0,3.91-15.83,1.7-23.66,0,0,3.94-1.26,8.87-.98.5.03,1,.07,1.51.13t-.01-.02s0-.05-.03-.09c-.06-.21-.23-.7-.51-1.38-.05-.12-.1-.25-.16-.39-.14-.34-.31-.71-.5-1.11-.15-.32-.32-.66-.51-1.02-.1-.18-.19-.36-.3-.55-.1-.18-.2-.37-.32-.56-.1-.19-.22-.38-.34-.57-.86-1.4-1.95-2.9-3.31-4.31-.18-.19-.37-.38-.57-.57-.19-.19-.39-.38-.6-.56-.41-.38-.84-.73-1.29-1.07-.23-.18-.46-.35-.7-.51-.95-.66-1.98-1.25-3.1-1.75,0,0,4.59-9.19,5.1-12.08,0,0-.08.05-.22.13-.04.03-.1.06-.16.1-.12.08-.27.17-.44.27-.17.11-.36.23-.57.36-.74.47-1.72,1.08-2.77,1.77-.25.16-.49.33-.75.5-1.91,1.26-3.94,2.69-5.2,3.79-.21.18-.39.35-.55.51l-.22.22c-2.22,2.39-6.47,5.62-9.88,6.98-.53.21-1.33.58-2.3,1.11-.39.21-.81.46-1.25.73-.22.14-.45.28-.68.43-.47.3-.95.63-1.45,1-.25.17-.5.36-.76.57-.25.19-.51.39-.77.61-.26.22-.52.44-.79.67-.53.46-1.06.96-1.6,1.49-1.21,1.2-2.43,2.59-3.59,4.19-.18.24-.35.48-.51.73-.23.32-.45.65-.66,1-.13.19-.25.38-.36.58-.18.28-.36.57-.52.87-.04.07-.09.15-.12.23-.18.3-.35.61-.51.93-.17.31-.32.61-.47.92-.25.53-.5,1.08-.74,1.65-.14.31-.27.64-.4.97-.04.12-.09.25-.14.37-.14.37-.28.75-.4,1.13-.05.16-.11.31-.16.47-.13.39-.25.8-.37,1.21-.16.53-.3,1.07-.43,1.62-.12.48-.23.98-.33,1.48-.01.07-.03.14-.04.21-.1.53-.2,1.06-.28,1.61-.03.14-.05.28-.07.42-.08.51-.14,1.03-.2,1.56-.06.48-.11.96-.16,1.44-.14,1.35-.25,2.65-.35,3.91-1.3,16.46.16,25.61-8.17,33.78-8.11,7.96-16.47,8.5-24.4,6.17l-.14-5.15c4.71-2.44,13.31-8.22,13.31-17.86,0,0,.17-6.13-4.09-7.32-3.26-.91-7.12-2.03-9.96-2.49l-.41-15.51c.64-5.95,1.19-12.31,1.19-16.37,0-9.53.51-26.88,10.04-26.88s11.4,17.18,11.4,17.18c0,0,1.19-10.38,8.33-12.08,7.15-1.7,9.36-3.23,9.36-3.23,0,0-4.42.34-11.74-4.26,0,0,.14-.02.4-.06.09-.01.19-.03.31-.05.19-.03.42-.07.68-.13.06-.01.13-.02.21-.04.31-.06.67-.14,1.07-.24.16-.04.31-.08.48-.12.42-.1.87-.23,1.36-.38.22-.06.45-.13.69-.21.23-.08.47-.16.71-.24.33-.11.67-.23,1.01-.36.33-.12.68-.26,1.04-.41.53-.22,1.08-.46,1.63-.72.28-.13.55-.27.83-.41.62-.31,1.26-.66,1.9-1.04.21-.13.43-.26.64-.39.38-.24.76-.49,1.14-.75.18-.13.37-.26.56-.4.56-.41,1.11-.85,1.66-1.31.27-.23.54-.47.81-.72s.53-.5.79-.76c.23-.23.45-.47.68-.71.22-.24.44-.49.65-.74.22-.25.43-.51.64-.78.01-.01.02-.02.03-.03.2-.26.39-.52.58-.78.21-.29.41-.59.61-.9s.4-.62.59-.94c.09-.15.18-.31.26-.47.09-.16.17-.32.26-.48.18-.33.35-.67.51-1.01.11-.21.21-.43.3-.66.14-.31.27-.63.39-.96.21-.53.41-1.08.58-1.64.09-.27.17-.54.24-.82.05-.18.1-.37.15-.55.12-.45.22-.91.31-1.38.07-.31.12-.64.18-.96.07-.37.12-.74.17-1.13.05-.38.09-.77.13-1.16,0,0,7.15-6.98,10.04-7.32,0,0-16.67-11.06-38.62,10.38,0,0,2.55-8.67,5.61-12.93,0,0-9.35,9.19-11.4,16-2.04,6.8-4.42,11.74-8.5,11.74s-7.83-5.79-7.83-13.1,8.85-22.47,12.25-25.87c0,0-11.8,5.25-17.11,24.15-.02.06-.03.12-.05.18v-44.69l13.77-12.9-7.94,2.97v-13.84s-2.88-.84-5.83-1.21v-34.04s17.86-4.42,20.41-4.76c0,0-2.55,5.61-2.55,6.3,0,0,17.53-16.34,18.38-17.19,0,0,.2,1.32.14,1.57.27,0,42.23-33.33,47.14-41.64,0,0,27.23,49.17,2.55,102.09,0,0-.4-.48-1.04-1.22-.58-.67-1.36-1.55-2.2-2.47-.34-.38-.69-.75-1.04-1.12-.53-.57-1.06-1.12-1.58-1.63-.17-.17-.34-.34-.51-.49-.1-.1-.21-.2-.31-.29-.1-.1-.2-.19-.3-.28-.43-.39-.83-.71-1.17-.95-.12-.09-.24-.17-.35-.23h0s.03-.08.06-.15c.01-.02.02-.05.03-.08.03-.1.08-.21.15-.35.09-.23.21-.53.34-.88.19-.5.43-1.11.7-1.81.06-.16.13-.33.19-.51.07-.18.13-.36.2-.55.46-1.22.97-2.65,1.48-4.19.1-.28.2-.57.29-.86.04-.12.08-.24.12-.37.14-.44.29-.88.42-1.33.16-.49.31-.99.46-1.5.07-.23.13-.45.2-.67.27-.92.52-1.84.76-2.76.13-.53.26-1.06.39-1.59.27-1.17.5-2.33.68-3.43.06-.37.11-.73.16-1.09,0,0-4.08,3.58-7.32,5.45,0,0,3.4-7.79,3.21-15.83,0-.16,0-.31,0-.47-.01-.21-.02-.41-.04-.62-.01-.29-.04-.58-.07-.87-.03-.27-.06-.53-.09-.8-.05-.33-.1-.67-.16-1-.06-.27-.11-.53-.17-.79-.13-.56-.29-1.13-.47-1.68-.19-.55-.4-1.09-.64-1.63-.09-.2-.19-.4-.29-.59-.08-.17-.17-.34-.27-.5-.33-.61-.72-1.2-1.17-1.77,0-.02-.01-.03-.03-.05-.15-.2-.3-.38-.47-.56-.1-.12-.21-.24-.32-.36-.17-.19-.35-.38-.54-.56,0,0,4.09,2.89,3.58-1.36,0,0,.47.69,1.16,1.77.15.24.31.5.49.78.08.14.17.28.26.43.18.29.37.6.55.92.38.64.77,1.32,1.15,2.03,0,0,.01,0,.01.01.19.35.38.71.57,1.07.28.55.55,1.1.8,1.64.17.36.32.72.47,1.07h.01c.14.36.27.71.39,1.04.04.11.08.21.11.31.04.11.07.22.1.32.13.41.23.81.3,1.17.02.07.03.15.04.22.01.06.02.12.03.18.01.04.01.07.02.1.01-.04.02-.09.02-.16.01-.04.01-.09.02-.15,0-.07.01-.14.02-.22.01-.12.02-.25.04-.41.01-.11.02-.24.03-.37.01-.11.02-.22.03-.35.01-.17.03-.36.04-.56.01-.12.02-.24.03-.37,0-.05.01-.09.01-.14.02-.35.05-.73.07-1.14.02-.32.04-.66.06-1.01,0-.13.02-.27.02-.4.1-2.08.17-4.65.12-7.48,0-.27,0-.54-.01-.81-.01-.33-.02-.67-.03-1.01-.01-.45-.03-.9-.05-1.36-.03-.53-.05-1.06-.09-1.6-.04-.54-.07-1.09-.11-1.63-.03-.28-.05-.56-.07-.84-.01-.12-.02-.23-.03-.35,0-.01-.01-.03-.01-.04-.7-7.5-2.45-15.38-6.4-20.39,0,0-24.68,24.5-28.42,39.3,0,0,11.4-5.95,14.46-6.46,0,0-11.4,13.61-13.78,17.69,0,0,4.59-.85,8.17-.68,0,0-7.66,9.87-12.93,12.59,0,0,16.16,8.34,19.05,11.23,0,0-3.57.34-5.78,1.19,0,0,27.73,25.02,41.35,30.12,0,0-6.13,2.04-10.04,2.21,0,0,22.12,18.72,30.63,32.16,0,0-15.49-1.87-23.15-4.08Z"/>
        <path class="cls-6" d="M205.97,188.72s1.47-2.34,4.12-5.13c6.83,2.82,8.04-2.95,8.18-6.39,1.79-.95,3.75-1.73,5.85-2.21,0,0,4.08,19.74-18.15,13.72Z"/>
        <path class="cls-5" d="M191.73,268.13s-5.63,1.54-9.62,1.91l-.17-6.31c2.5.31,6.53,1.3,9.79,4.4Z"/>
        <path class="cls-7" d="M197.29,299.33s-4.48,6.95-14.18,8.12l-.2-7.68c4.6-.03,12.55-.12,14.38-.44Z"/>
      </g>
      <g>
        <path class="cls-13" d="M197.18,171.03s6.01-15.77,14.63-21.1c8.62-5.33,16.79-3.4,16.79-3.4,0,0-28.81,17.7-31.42,24.5Z"/>
        <path class="cls-10" d="M238.81,174.21s-.51,24.72-17.05,29.2c0,0-4.42.34-11.74-4.25,0,0,23.14-2.72,25.18-24.84,0,0,2.58.23,3.6-.11Z"/>
        <path class="cls-8" d="M237.76,270.96h.01s0,0,0,0h-.01Z"/>
        <path class="cls-11" d="M261.16,205.93c.12,2.04,11.24,20.07,7.84,40.61,0,0-1.59-3.63-2.96-4.65,0,0,1.03,19.96-18.18,48.08,0,0,0,.01,0,.01-2.46,2.5-4.97,4.92-7.55,7.29-4.71,4.33-9.61,8.44-14.69,12.34.19-.29.38-.59.57-.88.1-.15.19-.29.28-.44.27-.4.53-.81.79-1.22,1.59-2.47,3.17-5.06,4.7-7.73.26-.45.52-.9.76-1.35.77-1.35,1.51-2.73,2.23-4.12.25-.46.49-.93.72-1.4.48-.93.95-1.88,1.39-2.83.01,0,.02-.02.02-.03.41-.85.81-1.71,1.19-2.57.04-.09.08-.17.11-.26.22-.48.44-.96.64-1.44.21-.49.41-.97.61-1.45.2-.48.4-.97.58-1.45.58-1.45,1.12-2.91,1.61-4.36.16-.46.31-.93.46-1.39.16-.51.32-1.02.47-1.53.15-.48.28-.97.41-1.45.03-.1.06-.19.08-.29.07-.25.14-.49.2-.73.07-.24.13-.48.18-.71.1-.39.19-.78.28-1.17.11-.48.22-.97.31-1.45.11-.48.2-.96.28-1.44.09-.48.17-.96.24-1.43.15-.95.27-1.89.36-2.83h-.01c-.06.08-.33.41-.76.91-.11.13-.23.27-.36.41-.35.4-.77.87-1.26,1.39-.99,1.06-2.23,2.3-3.54,3.44-.23.2-.46.4-.69.59s-.46.37-.69.55c0-.02.02-.05.05-.09.02-.04.04-.08.07-.14.15-.27.41-.75.75-1.39.04-.08.08-.17.13-.25.59-1.15,1.39-2.73,2.24-4.55.25-.52.5-1.07.75-1.63.17-.36.33-.73.48-1.09.2-.44.39-.88.57-1.33.25-.6.5-1.2.73-1.81.06-.15.12-.31.18-.46.12-.3.23-.61.34-.91.02-.04.03-.09.05-.13.11-.3.21-.59.31-.89s.2-.59.29-.88c.14-.41.26-.82.37-1.22.05-.15.09-.29.12-.43.4-1.46.67-2.82.74-4,.01-.1.01-.19.01-.29.02-.4.01-.77-.03-1.12,0,0,5.11,3.4,5.62,7.15,0,0,3.91-15.83,1.7-23.66,0,0,3.94-1.26,8.87-.98.5.03,1,.08,1.51.14h0s-.01-.02-.01-.03c0-.02,0-.05-.03-.09-.06-.21-.23-.7-.51-1.38-.05-.12-.1-.25-.16-.39-.14-.34-.31-.71-.5-1.11-.16-.33-.33-.67-.51-1.02-.1-.18-.19-.36-.3-.55-.1-.18-.2-.37-.32-.56-.11-.18-.22-.38-.34-.57-.86-1.4-1.95-2.9-3.31-4.31-.18-.19-.37-.38-.57-.57-.19-.19-.39-.38-.6-.56-.41-.38-.84-.73-1.29-1.07-.23-.18-.46-.35-.7-.51-.95-.66-1.98-1.25-3.1-1.75,0,0,4.59-9.19,5.1-12.08,0,0-.08.05-.22.13-.04.03-.1.06-.16.1-.12.08-.27.17-.44.27-.17.11-.36.23-.57.36-.74.47-1.72,1.08-2.77,1.77-.25.16-.49.33-.75.5-1.91,1.26-3.94,2.69-5.2,3.79-.21.18-.39.35-.55.51l-.22.22c-2.22,2.39-6.47,5.62-9.88,6.98-.53.21-1.33.58-2.3,1.11-.39.22-.81.46-1.25.73-.22.14-.45.28-.68.43-.93.6-1.94,1.33-2.98,2.18-.26.22-.52.44-.79.67-.53.46-1.06.96-1.6,1.49-1.21,1.2-2.43,2.59-3.59,4.19-.18.24-.35.48-.51.73-.23.32-.45.65-.66,1-.13.19-.25.38-.36.58-.18.28-.36.57-.52.87-.04.07-.09.15-.12.23-.19.3-.35.61-.51.93-.17.31-.32.61-.47.92-.25.53-.5,1.08-.74,1.65-.14.31-.27.64-.4.97-.04.12-.09.25-.14.37-.14.37-.27.75-.4,1.13-.05.16-.11.31-.16.47-.13.39-.25.8-.37,1.21-.15.53-.3,1.07-.43,1.62-.12.48-.23.98-.33,1.48-.01.07-.03.14-.04.21-.1.53-.2,1.06-.28,1.61-.03.14-.05.28-.07.42-.07.51-.14,1.03-.2,1.56-.06.48-.11.96-.16,1.44-.14,1.35-.25,2.65-.35,3.91-.01.07-.01.13-.02.2-2.33-5.72-7.92-19.72-9.07-25.07-1.48-6.81-1.02-16.22,3.85-18.61,4.88-2.38,11.8,3.4,16.91,1.93,5.1-1.48,24.84-10.04,25.24-31.34,0,0,16.9,15.2,18.94,20.19,0,0-10.1,3.4-9.99,5.45Z"/>
        <path class="cls-3" d="M215.6,75.87s-4,5.96-4,9.7,7.23,9.36,7.23,9.36c0,0-16.25-7.32-16.25-9.61s10.38-9.02,13.02-9.44Z"/>
        <path class="cls-12" d="M267.67,82.53c-1.53,14.64-3.82,21.52-3.82,21.52l1.95-1.44s-.65,11.11-1.17,16.38c-1.86-2.15-5.7-6.45-7.46-7.46,0,0,5.44-13.1,6.64-22.12,0,0-4.09,3.58-7.32,5.45,0,0,8.18-18.72-1.53-28.08,0,0,4.09,2.89,3.58-1.36,0,0,5.95,8.68,6.46,13.11,0,0,1.11-9.86.11-20.45,1.59,5.82,3.53,15.31,2.57,24.46Z"/>
      </g>
    </g>
    <path class="cls-4" d="M145.38,180.51l1.94.19v36.97c-1.42-.14-2.16.63-2.32,2.16v18.9s2.32.13,2.32.13l-2.32,53.88c-4.13-6.86-10.61-18.13-12.47-24.36l7.38-.22s-10.57-19.87-11.71-26.27l7.38-.23s-8.78-14.38-9.8-18.95l5.85-.23s-8.02-15.3-9.29-20.33c-.78-3.07-5.36,5.73-8.81,13.03l3.1-63.25.75-15.28s.03-.01.04-.01c5.23-1.88,20.3-6.82,29.9-4.92l.19,32.13s-1.93,0-1.93,2.13-.2,14.52-.2,14.52ZM111.22,109.45l-.59,13.48h-.01l-.43-.17h0s.21,1.42.21,1.42c6.97-4.45,37.26-5.03,37.26-5.03v-11.42l16.84-.29c-4.3-5.9-43.28-.25-53.28,2.01ZM139.4,300.6c-7.59.1-17.86.41-17.86.41,0,0-.8,2.65-.52,3.48.11.33,0,5.19.26,5.42,10.65,9.79,11.27,5.82,23.72,13.33l.28-22.75s-4.44.09-5.88.11ZM137.98,72.45v27.97c5.34-.58,11.65-.83,18.39-.19v-27.97c-6.74-.64-13.05-.39-18.39.19ZM159.85,72.66v27.98c3.89.53,7.89,1.38,11.9,2.64v-27.97c-4.01-1.26-8.01-2.11-11.9-2.65ZM121.63,75.7v27.97s5.03-1.68,12.87-2.82v-27.97c-7.84,1.14-12.87,2.82-12.87,2.82ZM182.25,69.34s0-.01-.01-.01c-.08-.17-.21-.35-.39-.53-.18-.18-.37-.36-.57-.54-.59-.53-1.25-1.05-1.92-1.52-.4-.28-.81-.55-1.21-.81-.04-.03-.08-.05-.12-.07-.22-.14-.44-.27-.65-.4-.84-.49-1.6-.89-2.19-1.17-.11-.05-.21-.1-.31-.14,0,0-.01-.04-.02-.11,0-.05-.03-.11-.05-.19-.07-.31-.21-.87-.44-1.61-.05-.18-.11-.37-.18-.57-.3-.91-.71-2.03-1.26-3.27-.06-.13-.12-.27-.19-.41-.53-1.16-1.18-2.41-1.97-3.68-.1-.16-.21-.32-.31-.48-.68-1.06-1.47-2.13-2.37-3.17-.17-.2-.35-.4-.53-.6-.18-.21-.37-.41-.57-.61-.09-.1-.19-.2-.3-.3-.19-.2-.38-.39-.59-.57-.6-.57-1.25-1.12-1.93-1.64-.35-.26-.7-.52-1.07-.76-.27-.19-.55-.37-.84-.54-.28-.18-.57-.35-.87-.51-.28-.16-.57-.32-.87-.47-.64-.32-1.3-.62-1.99-.88-.29-.12-.59-.23-.89-.33-.09-.04-.18-.07-.27-.09-.29-.1-.59-.2-.89-.29-.08-.03-.15-.05-.23-.06-.3-.09-.61-.17-.92-.25v-6.19s.01-.01.02-.01h0c.05-.07.19-.24.38-.5.05-.09.12-.19.19-.3.06-.08.12-.17.17-.27.06-.1.12-.2.18-.31.05-.09.1-.18.16-.28,1.26-2.54,2.16-7.44-7.03-10.65-.91-.27-1.83-.24-2.75,0-.58.2-1.12.41-1.63.63-.33.14-.65.29-.95.44-.7.34-1.31.69-1.84,1.06-.16.11-.31.21-.45.32-1.82,1.35-2.62,2.81-2.86,4.17-.01.08-.02.16-.04.24-.01.08-.01.15-.02.23-.05.5-.02.98.06,1.43,0,.11.03.22.06.33.03.16.07.32.12.47.47,1.62,1.43,2.8,1.59,2.99.01,0,.02.01.02.01v6.19c-.31.08-.62.16-.92.25-.08.01-.15.03-.23.06-.3.09-.6.19-.89.29-.09.02-.17.04-.26.08-.31.11-.61.22-.9.34-.69.26-1.35.56-1.98.88-.26.13-.52.27-.77.41-.09.04-.17.09-.26.15-.21.11-.42.24-.63.37-.32.18-.62.38-.93.59-.36.24-.72.5-1.06.76-.69.52-1.33,1.07-1.94,1.64-1.38,1.29-2.55,2.67-3.55,4.07-.3.41-.57.82-.83,1.23-.11.16-.2.31-.3.47-.69,1.11-1.27,2.19-1.76,3.22-.06.14-.13.28-.19.42-.65,1.4-1.12,2.68-1.46,3.69-.26.81-.44,1.45-.54,1.88-.05.18-.08.31-.11.41-.02.12-.03.18-.03.18h-.01c-.31.14-.69.32-1.12.55-.14.07-.29.15-.44.24-1.67.9-3.84,2.3-5.4,3.86-.04.04-.08.08-.11.12-.01,0-.01.01-.02.02-.06.08-.12.15-.17.23-.04.06-.08.13-.11.19-.02.04-.03.08-.04.11-.07.19-.08.37-.06.55.02.11.05.21.09.31.06.15.15.3.26.44.04.05.08.1.12.15.02.02.05.05.07.08.04.03.09.08.13.13.26.23.57.46.89.65.06.04.12.08.18.11.05.03.11.07.17.1,4.92-2.31,15.69-6.69,26.73-6.84,15-.19,16.94.68,17.42,0,.49-.68.58-2.03-1.83-2.42-2.42-.38-4.94.49-4.94-1.93s-1.55-11.52-2.81-13.45c-1.25-1.94-2.61-1.94-2.51-5.04.09-3.09.09-4.45-.39-5.51-.48-1.07,1.36-6,3.19-6.68,1.84-.68,5.04.29,5.04,2.61s-3,6.29-2.81,8.03c.19,1.75-.29,3.3,1.26,4.17,1.55.87,15.77,8.22,17.13,19.35,0,0-.1,2.42,2.22,3.1,1.94.56,6.26,1.86,8.94,3h.01s.02-.05.02-.07c.01-.01.02-.02.01-.03.02-.03.03-.06.04-.09,0-.01.01-.02,0-.03.01-.05.02-.1.03-.15.04-.22,0-.44-.1-.67Z"/>
    <polygon class="cls-1" points="9 53.02 116.88 81.31 116.88 95.64 9 122.81 9 53.02"/>
    <path class="cls-9" d="M76.57,235.29s-3,9.26-6.11,13.31c-.27-.43-.54-.86-.8-1.3-14.27-23.68-21.16-44.63-23.83-54.12,1.6-2.73,2.93-5.16,3.42-6.42,0,0-2.62.52-4.74.75l-.27-3.66c2.71-4.24,6.89-11.05,7.57-13.71,0,0-3.93.45-4.61.45,0,0,9.62-21.2,9.68-28,0,0,5.01,24.45,8.76,28,0,0-2.39.88-4.27-.23,0,0,6.32,13.3,9.4,16.4,0,0-6.11,1.32-7,.68.25.49,8.4,16.19,10.75,18.16,0,0-6.49.89-8.71.22,0,0,10.08,17.51,12.81,19.28,0,0-8.54,1.11-9.9.44,0,0,6.14,8.65,7.85,9.75ZM90.29,207.21l5.47-2.06c-.89,3.88-7,18.96-7,18.96l5.22-.69c-.76,4.11-5.73,11.88-5.73,11.88,0,2.74,8.66,19.41,8.66,19.41l-5.35.23c.25,2.06,5.73,10.05,5.73,10.05,1.66-1.37,7.51-12.1,7.51-12.1l2.8-11.88-7.13-.69c1.91-1.37,7.89-16.44,7.89-16.44l-4.46.23,2.55-8.45c-.89-1.14-3.69-8.91-3.69-8.91l5.22,1.83c-3.95-7.54-9.17-40.88-9.17-40.88-1.4,23.07-8.53,39.51-8.53,39.51Z"/>
    <path class="cls-15" d="M133.38,35.37l-81.54,22.56,19.17,5.07,50.61-14.01c2.94-4.07,7.15-8.1,13.09-10.56v-.02c-.48-.82-.97-1.85-1.33-3.04ZM324.9,65.17l-44.54-12.33c.58,3.59,1,7.16,1.27,10.72l40.6,11.24-8.25,114.58s-22.86,111.46-138.26,157.59c-.14.06-.28.12-.42.17-.14-.05-.28-.11-.42-.17C59.48,300.84,36.62,189.38,36.62,189.38l-4.77-66.14-9.84,2.48,4.64,64.38.04.65.13.64c.25,1.21,6.3,29.93,27.08,64.63,12.18,20.34,26.96,38.59,43.92,54.22,21.19,19.54,45.83,35.01,73.25,45.98.29.12.58.24.87.34l3.36,1.2,3.36-1.2c.29-.1.58-.22.87-.34,27.42-10.98,52.07-26.44,73.26-45.98,16.95-15.63,31.73-33.88,43.92-54.22,20.77-34.7,26.82-63.42,27.07-64.63l.13-.64.05-.65,8.25-114.58.58-8.17-7.89-2.18ZM178.39,24.62l-.07-.02-.06-.02-.42-.11-2.54-.66-2.53.66-.42.11-.14.04-9.9,2.74c.21.52.39,1.05.53,1.6.95,3.65-.12,6.85-1.24,8.97l13.28-3.68.42-.11.42.11,46.54,12.88c2.84-2.31,6.07-4.97,9.41-7.76l-53.28-14.75Z"/>
  </g>
</svg>
